<svg xmlns="http://www.w3.org/2000/svg" viewBox="0 0 1350.84 324.25"><defs><style>.cls-1{fill:#fff;}.cls-2{fill:#c4dc63;}.cls-3{fill:#fbba58;}.cls-4{fill:#007f37;}.cls-5{fill:#38b1f7;}</style></defs><title>Asset 2</title><g id="Layer_2" data-name="Layer 2"><g id="Layer_1-2" data-name="Layer 1"><path class="cls-1" d="M490.15,59.57c-8.06.34-9.63,1.56-9.63,10.2v60.36c0,7.42,1.22,8.47,7.49,8.47h5.79c11,0,19.33-10.68,21.65-26.52h2.73c-.23,2.73-.35,6.38-.35,10.44,0,3.72.12,11.38.81,18.8-8.06-.35-19.2-.35-27.22-.35s-25.75,0-38.7.35v-2.38c7.55-.34,8.88-1.56,8.88-10.21v-59c0-8.64-1.39-9.86-8.88-10.2V57.19c4,.23,11.14.34,18.75.34,6.91,0,14.27-.11,18.68-.34Z"/><path class="cls-1" d="M608.23,131.34c2.2,5.69,5.22,7.49,7.49,7.6v2.38c-4.71-.23-11.55-.35-18.05-.35-7.37,0-14.16.12-18.11.35v-2.38c5.69-.23,8.36-1.1,8.36-4.35a16.82,16.82,0,0,0-1.39-5.63l-7.14-19.49H553.57l-3.2,8.24c-2.26,5.8-3.24,10-3.24,13.17,0,6.27,4.06,7.89,10.56,8.06v2.38c-5.4-.23-9.87-.35-14.8-.35-3.48,0-6.73.12-9.11.35v-2.38c3.48-.64,7-3.71,10.33-12.47l27-69.51c1.27.11,2.67.17,4.12.17s2.84-.06,4.12-.17ZM566.74,75.12l-12.3,32h24.08Z"/><path class="cls-1" d="M668.28,59.57c-8.07.34-9.64,1.56-9.64,10.2v60.36c0,7.42,1.22,8.47,7.49,8.47h5.79c11,0,19.33-10.68,21.65-26.52h2.73c-.23,2.73-.35,6.38-.35,10.44,0,3.72.12,11.38.81,18.8-8.06-.35-19.2-.35-27.21-.35s-25.76,0-38.71.35v-2.38c7.55-.34,8.88-1.56,8.88-10.21v-59c0-8.64-1.39-9.86-8.88-10.2V57.19c4,.23,11.14.34,18.75.34,6.91,0,14.27-.11,18.69-.34Z"/><path class="cls-1" d="M754.49,59.57c-7.6.34-8.93,1.56-8.93,10.2v59c0,8.65,1.39,9.87,8.93,10.21v2.38c-4.29-.23-11.37-.35-18-.35-7.6,0-14.73.12-18.74.35v-2.38c7.55-.34,8.88-1.56,8.88-10.21v-59c0-8.64-1.39-9.86-8.88-10.2V57.19c4,.23,11.14.34,18.74.34,6.62,0,13.7-.11,18-.34Z"/><path class="cls-1" d="M848.24,77.38c0,3.53.11,6.85.34,9.05h-2.72c-4-20-10.27-26.52-21.36-26.52h-2.61v67.84c0,9.68,2.15,11.08,12.71,11.19v2.38c-5.05-.17-13.86-.35-22.63-.35s-17,.18-21.7.35v-2.38c10.56-.11,12.7-1.51,12.7-11.19V59.91h-2.61c-11.2,0-17.34,6.45-21.41,26.52h-2.72c.23-2.2.35-5.52.35-9.05,0-3.95-.24-12.13-.82-20.19,10.74.34,26.11.34,36.73.34s25.88,0,36.62-.34C848.47,65.25,848.24,73.43,848.24,77.38Z"/><path class="cls-1" d="M947,57.19v2.38c-3.42,1.33-7.66,5.22-10.85,14.09L911,141.56c-1.27-.06-2.72-.12-4.12-.12s-2.84.06-4.12.12L872.49,67.17c-2.27-5.69-5.17-7.49-7.49-7.6V57.19c4.76.23,11.54.34,18.1.34,7.32,0,14.16-.11,18-.34v2.38c-5.51.23-8.35,1-8.35,4.41a16.53,16.53,0,0,0,1.39,5.56l21,53.22,14.62-39.47c2.26-6.15,3.31-10.84,3.31-14.38,0-6.62-3.66-9.17-10-9.34V57.19c5.34.23,9.87.34,14.8.34C941.42,57.53,944.61,57.42,947,57.19Z"/><path class="cls-1" d="M1000.88,59.57c-7.59.34-8.93,1.56-8.93,10.2v59c0,8.65,1.39,9.87,8.93,10.21v2.38c-4.29-.23-11.37-.35-18-.35-7.6,0-14.74.12-18.75.35v-2.38c7.55-.34,8.89-1.56,8.89-10.21v-59c0-8.64-1.39-9.86-8.89-10.2V57.19c4,.23,11.15.34,18.75.34,6.61,0,13.69-.11,18-.34Z"/><path class="cls-1" d="M1070.21,60.26c1.91,1.16,3,1.69,4,1.69,1.56,0,2.14-1.81,2.66-5.23h2.74c-.41,4.7-.64,10.39-.64,27.1h-2.73c-.81-12.36-7.49-25.3-20.19-25.3-7.61,0-13.06,4.58-13.06,12.12,0,9.58,7.25,13.47,20.54,22.41,11.26,7.48,20.08,13.92,20.08,26.81,0,15.66-13.52,23.15-29.48,23.15-9.86,0-15.09-2.27-19.09-4.41-1.92-1.22-3.14-1.69-4.06-1.69-1.57,0-2.15,1.8-2.62,5.23h-2.72c.34-5.58.46-13.18.46-32.09h2.73c1,15.84,6.44,29.82,21.64,29.82,8.3,0,14.74-4.41,14.74-13.28,0-9.75-7.37-15.38-17.81-22.12-11.31-7.19-21.18-13.86-21.18-27.09,0-15,12.71-21.7,26.63-21.7C1062.14,55.68,1066.49,58.06,1070.21,60.26Z"/><path class="cls-1" d="M1143.59,59.57c-7.59.34-8.93,1.56-8.93,10.2v59c0,8.65,1.39,9.87,8.93,10.21v2.38c-4.29-.23-11.37-.35-18-.35-7.61,0-14.74.12-18.75.35v-2.38c7.55-.34,8.88-1.56,8.88-10.21v-59c0-8.64-1.39-9.86-8.88-10.2V57.19c4,.23,11.14.34,18.75.34,6.61,0,13.69-.11,18-.34Z"/><path class="cls-1" d="M1250,98.56c0,26.58-17.41,44.45-42.07,44.45-25.18,0-42-15.85-42-43.06,0-26.57,17.35-44.45,42.07-44.45C1233.22,55.5,1250,71.35,1250,98.56Zm-64.29.92c0,25.3,10.15,41.38,22.69,41.38,13.28,0,21.88-17.23,21.88-41.84,0-25.29-10.16-41.37-22.75-41.37C1194.28,57.65,1185.75,74.88,1185.75,99.48Z"/><path class="cls-1" d="M1350.84,59.57c-7.6,1-8.94,4.17-8.94,15.66v66.33c-.87-.06-1.85-.06-2.84-.06s-2.09,0-3.25.06l-51.53-65.34v45.61c0,13.06,1,16.07,11.55,17.11v2.38c-3.08-.23-8.59-.35-12.88-.35-3.72,0-7.84.12-10.33.35v-2.38c7.6-1,8.94-4.17,8.94-15.67V69.77c0-8.64-1.4-9.86-8.94-10.2V57.19c2.49.23,6.61.34,10.33.34s7.48-.11,10.27-.34l46,56.68V76.68c0-13.06-1-16.07-11.55-17.11V57.19c3.08.23,8.59.34,12.88.34,3.72,0,7.84-.11,10.33-.34Z"/><path class="cls-1" d="M476.71,262.8c0,5,1.15,5.72,6.88,5.79V270c-2.64-.1-7.14-.19-11.73-.19-3.71,0-7.42.09-10.22.19v-1.29c4.09-.19,4.81-.85,4.81-5.53v-32c0-4.69-.75-5.35-4.81-5.54v-1.28c2.17.12,6.16.18,9.78.18,4.22,0,8.49-.12,10.13-.12,12,0,17.83,5.21,17.83,12.7,0,6.23-4.06,14.41-19.25,14.41h-3.42Zm0-31.57v19.05h2.76c7.61,0,9.22-5.84,9.22-12.42,0-8.11-2.14-12.17-8-12.17C477.39,225.69,476.71,226.79,476.71,231.23Z"/><path class="cls-1" d="M541,236.66V238c-1.61.41-3.08,1.7-4.4,5.54l-9.43,26.57c-.7-.07-1.42-.1-2.11-.1s-1.38,0-2.11.1l-11.44-28.5c-1.36-3.3-2.84-3.61-3.75-3.61v-1.36c2.74.23,5.57.36,9.15.36,2.65,0,5.79-.13,8.37-.36V238c-2.17,0-4,0-4,1.86a5.32,5.32,0,0,0,.32,1.63L529,261.07l4.62-12.8a16.19,16.19,0,0,0,1-5.13c0-3.33-1.83-4.93-4.72-5.12v-1.36c2,.2,4.49.26,6.19.26A34.77,34.77,0,0,0,541,236.66Z"/><path class="cls-1" d="M571,236.73V238h-7.62v26c0,2.65,1,3.59,2.83,3.59,1.57,0,3.15-1,4.41-3.87l1.06.6c-1.41,3.84-4.06,6.6-8.8,6.6-2.89,0-5-.72-6.44-2.16-1.86-1.9-2.34-4.51-2.34-9V238h-5.4v-1.29h5.4v-8.52a19.18,19.18,0,0,0,9.28-2.08v10.6Z"/><path class="cls-1" d="M623.81,225.69c-4.37.19-5.22.85-5.22,5.54v32.7c0,4,.66,4.59,4.06,4.59h3.14c6,0,10.48-5.79,11.73-14.37H639c-.13,1.48-.19,3.46-.19,5.66,0,2,.06,6.16.44,10.19-4.37-.19-10.41-.19-14.75-.19s-14,0-21,.19v-1.29c4.09-.19,4.81-.85,4.81-5.53v-32c0-4.69-.75-5.35-4.81-5.54v-1.28c2.16.12,6,.18,10.15.18,3.75,0,7.74-.06,10.13-.18Z"/><path class="cls-1" d="M670.34,236.73V238h-7.62v26c0,2.65.95,3.59,2.83,3.59,1.58,0,3.15-1,4.41-3.87l1.06.6c-1.41,3.84-4,6.6-8.8,6.6-2.89,0-5-.72-6.44-2.16-1.86-1.9-2.34-4.51-2.34-9V238H648v-1.29h5.4v-8.52a19.18,19.18,0,0,0,9.28-2.08v10.6Z"/><path class="cls-1" d="M711.38,263c0,3.83,1,5.66,4.12,5.66V270c-1.35-.13-2.71-.19-4-.19a41.88,41.88,0,0,0-9.41.88v-5.44a8.29,8.29,0,0,1-8.36,5.69c-7.68,0-13.15-5.44-13.15-17.71,0-11.66,6.13-17.41,14.41-17.41,2.92,0,5.37.69,7.1,2.42V227.33c0-3.87-1-5.7-4.12-5.7v-1.35c1.35.13,2.7.19,4,.19a41.55,41.55,0,0,0,9.4-.88Zm-9.28-.25v-22.9a5.69,5.69,0,0,0-4.68-2.17c-4.44,0-7.11,5.06-7.08,15.69,0,11,2.36,14.79,6.07,14.79C699.05,268.12,701.51,266.1,702.1,262.71Z"/><path class="cls-2" d="M177.11,147.05c0,38.11-.51,76.23.25,114.33.31,16-4.4,23.89-21.65,22.45a278.25,278.25,0,0,0-38.09-.06c-13.68.75-19.4-4.74-19.35-18.59q.39-121.35,0-242.71c0-11.65,4.46-17.38,16.56-17.09,14.7.35,29.44.57,44.12-.09,14.29-.66,18.49,6.05,18.33,19.4C176.8,65.47,177.11,106.26,177.11,147.05Z"/><path class="cls-3" d="M256,0c9.75-.53,13.23,4.75,15.62,12.89Q306,130.22,341,247.36c3.55,12,.48,18.87-12.63,21.62a274.83,274.83,0,0,0-40.45,11.51c-14.1,5.31-18.83-.6-22.51-13.27q-33.26-114.5-67.78-228.63c-4.65-15.26-1.26-22.18,14.26-25.55C226.78,9.8,241.27,4.45,256,0Z"/><path class="cls-4" d="M77.11,142.88c0,39.44-.51,78.9.24,118.32.3,16.14-4.87,23-21.82,22.59-65-1.54-54.15,8.57-54.71-53.22C.2,163.05,1.07,95.52.39,28,.23,12,4.5,5.34,21.7,5.78,87.37,7.5,76.05-2.83,77,60.66,77.47,88.06,77.11,115.47,77.11,142.88Z"/><rect class="cls-5" y="296.11" width="342.32" height="28.14"/></g></g></svg>