<svg xmlns="http://www.w3.org/2000/svg" viewBox="0 0 342.32 324.25"><defs><style>.cls-1{fill:#c4dc63;}.cls-2{fill:#fbba58;}.cls-3{fill:#007f37;}.cls-4{fill:#38b1f7;}</style></defs><title>Asset 1</title><g id="Layer_2" data-name="Layer 2"><g id="Layer_1-2" data-name="Layer 1"><path class="cls-1" d="M177.11,147.05c0,38.11-.51,76.23.25,114.33.31,16-4.4,23.89-21.65,22.45a278.25,278.25,0,0,0-38.09-.06c-13.68.75-19.4-4.74-19.35-18.59q.39-121.35,0-242.71c0-11.65,4.46-17.38,16.56-17.09,14.7.35,29.44.57,44.12-.09,14.29-.66,18.49,6.05,18.33,19.4C176.8,65.47,177.11,106.26,177.11,147.05Z"/><path class="cls-2" d="M256,0c9.75-.53,13.23,4.75,15.62,12.89Q306,130.22,341,247.36c3.55,12,.48,18.87-12.63,21.62a274.83,274.83,0,0,0-40.45,11.51c-14.1,5.31-18.83-.6-22.51-13.27q-33.26-114.5-67.78-228.63c-4.65-15.26-1.26-22.18,14.26-25.55C226.78,9.8,241.27,4.45,256,0Z"/><path class="cls-3" d="M77.11,142.88c0,39.44-.51,78.9.24,118.32.3,16.14-4.87,23-21.82,22.59-65-1.54-54.15,8.57-54.71-53.22C.2,163.05,1.07,95.52.39,28,.23,12,4.5,5.34,21.7,5.78,87.37,7.5,76.05-2.83,77,60.66,77.47,88.06,77.11,115.47,77.11,142.88Z"/><rect class="cls-4" y="296.11" width="342.32" height="28.14"/></g></g></svg>